<svg height="512" viewBox="0 0 512 512" width="512" xmlns="http://www.w3.org/2000/svg"><path d="m484 160h-32a20.248 20.248 0 0 0 -4 .4v-4.4a20.02 20.02 0 0 0 -20-20h-56a20.02 20.02 0 0 0 -20 20v60h-192v-60a20.02 20.02 0 0 0 -20-20h-56a20.02 20.02 0 0 0 -20 20v4.4a20.248 20.248 0 0 0 -4-.4h-32a20.02 20.02 0 0 0 -20 20v152a20.02 20.02 0 0 0 20 20h32a20.248 20.248 0 0 0 4-.4v4.4a20.02 20.02 0 0 0 20 20h56a20.02 20.02 0 0 0 20-20v-60h192v60a20.02 20.02 0 0 0 20 20h56a20.02 20.02 0 0 0 20-20v-4.4a20.248 20.248 0 0 0 4 .4h32a20.02 20.02 0 0 0 20-20v-152a20.02 20.02 0 0 0 -20-20zm-420 172a4 4 0 0 1 -4 4h-32a4 4 0 0 1 -4-4v-152a4 4 0 0 1 4-4h32a4 4 0 0 1 4 4zm80 24a4 4 0 0 1 -4 4h-56a4 4 0 0 1 -4-4v-200a4 4 0 0 1 4-4h56a4 4 0 0 1 4 4zm208-76h-192v-48h192zm80 76a4 4 0 0 1 -4 4h-56a4 4 0 0 1 -4-4v-200a4 4 0 0 1 4-4h56a4 4 0 0 1 4 4zm56-24a4 4 0 0 1 -4 4h-32a4 4 0 0 1 -4-4v-152a4 4 0 0 1 4-4h32a4 4 0 0 1 4 4z"/></svg>